<svg width="400" height="400" viewBox="0 0 400 400" fill="none" xmlns="http://www.w3.org/2000/svg">
<path d="M391.528 188.061L309.455 159.75C276.997 148.597 251.403 123.003 240.25 90.5451L211.939 8.47185C208.079 -2.82395 191.921 -2.82395 188.061 8.47185L159.75 90.5451C148.597 123.003 123.003 148.597 90.5451 159.75L8.47185 188.061C-2.82395 191.921 -2.82395 208.079 8.47185 211.939L90.5451 240.25C123.003 251.403 148.597 276.997 159.75 309.455L188.061 391.528C191.921 402.824 208.079 402.824 211.939 391.528L240.25 309.455C251.403 276.997 276.997 251.403 309.455 240.25L391.528 211.939C402.824 208.079 402.824 191.921 391.528 188.061ZM295.728 206.077L254.692 220.232C238.391 225.809 225.666 238.677 220.089 254.835L205.934 295.871C203.932 301.591 195.925 301.591 193.923 295.871L179.768 254.835C174.191 238.534 161.323 225.809 145.165 220.232L104.129 206.077C98.4093 204.075 98.4093 196.068 104.129 194.066L145.165 179.911C161.466 174.334 174.191 161.466 179.768 145.308L193.923 104.272C195.925 98.5523 203.932 98.5523 205.934 104.272L220.089 145.308C225.666 161.609 238.534 174.334 254.692 179.911L295.728 194.066C301.448 196.068 301.448 204.075 295.728 206.077Z" fill="#3858E9" style="fill:#3858E9;fill:color(display-p3 0.2196 0.3451 0.9137);fill-opacity:1;"/>
</svg>
