<svg width="58" height="58" fill="none" xmlns="http://www.w3.org/2000/svg"><path d="M30 17c0-8.265-6.735-15-15-15C6.72 2 0 8.735 0 17c0 8.28 6.72 15 15 15 8.265 0 15-6.72 15-15Zm-18.33 8.055L6.555 11.33c.825-.03 1.755-.12 1.755-.12.75-.09.66-1.695-.09-1.665 0 0-2.175.165-3.555.165-.27 0-.555 0-.87-.015 2.385-3.66 6.51-6.03 11.205-6.03 3.495 0 6.675 1.305 9.075 3.51-1.02-.165-2.475.585-2.475 2.37 0 1.11.675 2.04 1.35 3.15.525.915.825 2.04.825 3.69 0 2.235-2.1 7.5-2.1 7.5L17.13 11.33c.81-.03 1.23-.255 1.23-.255.75-.075.66-1.875-.09-1.83 0 0-2.16.18-3.57.18-1.305 0-3.495-.18-3.495-.18-.75-.045-.84 1.8-.09 1.83l1.38.12 1.89 5.115-2.715 8.745ZM26.115 17c.36-.96 1.11-2.805.645-6.375 1.05 1.935 1.575 4.065 1.575 6.375 0 4.935-2.595 9.36-6.6 11.67 1.455-3.885 2.91-7.8 4.38-11.67ZM9.15 29.135C4.68 26.975 1.665 22.295 1.665 17c0-1.95.345-3.72 1.08-5.385 2.13 5.835 4.26 11.685 6.405 17.52Zm6.045-9.945 3.87 10.47c-1.29.435-2.64.675-4.065.675-1.185 0-2.355-.165-3.435-.495 1.215-3.57 2.43-7.11 3.63-10.65Z" fill="#3F5BE0"/><rect x="26" y="2" width="30" height="30" rx="15" fill="#fff"/><path fill-rule="evenodd" clip-rule="evenodd" d="M57.637 17c0 9.188-7.448 16.636-16.636 16.636-9.188 0-16.637-7.448-16.637-16.636 0-9.188 7.449-16.636 16.637-16.636S57.637 7.812 57.637 17ZM41.001 32c8.284 0 15-6.716 15-15 0-8.284-6.716-15-15-15-8.285 0-15 6.716-15 15 0 8.284 6.715 15 15 15Z" fill="#fff"/><path d="M41 2c-8.264 0-15 6.718-15 15s6.718 15 15 15 15-6.718 15-15S49.282 2 41 2Zm-.773 17.485h-7.472l7.472-14.54v14.54Zm1.528 9.533v-14.54h7.454l-7.454 14.54Z" fill="#069E08"/><circle cx="15" cy="43" r="16" fill="#fff"/><g transform="translate(0,28) scale(1.5)"><path fill="#873EFF" d="M10 0C15.5228 0 20 4.47715 20 10C20 15.5228 15.5228 20 10 20C4.47715 20 0 15.5228 0 10C0 4.47715 4.47715 0 10 0ZM3.96289 6.48242C3.18274 6.48255 2.78715 6.84526 2.78711 7.51562C2.78716 8.186 3.20472 8.5711 3.96289 8.5713H4.80957V12.583C4.80963 13.7152 5.5685 14.3857 6.67871 14.3857C7.56882 14.3856 8.2837 13.9465 8.8223 12.9355L10.0205 10.6924V12.5947C10.0207 13.7156 10.7461 14.3857 11.8672 14.3857C12.7463 14.3856 13.3951 14.0014 14.0215 12.9355L16.7803 8.2744C17.3848 7.25229 16.9565 6.4827 15.627 6.48242C14.9124 6.48242 14.4499 6.71367 14.0322 7.49414L12.1309 11.0664V7.88965C12.1309 6.94438 11.68 6.48252 10.8447 6.48242C10.1852 6.48242 9.6577 6.76825 9.251 7.55957L7.45898 11.0664V7.92285C7.45898 6.91172 7.04118 6.48258 6.03027 6.48242H3.96289Z"/></g><circle cx="41" cy="43" r="16" fill="#fff"/><g transform="translate(26,29.3) scale(0.6383)"><path fill-rule="evenodd" clip-rule="evenodd" d="M39.3164 20.9589C39.3164 13.2129 33.656 6.30469 23.4214 6.30469C13.1867 6.30469 7.58624 13.2129 7.58624 20.9589V21.9206C7.58624 29.6677 13.1867 36.6942 23.4214 36.6942C33.656 36.6942 39.3164 29.6677 39.3164 21.9206V20.9589ZM23.4214 43C9.21187 43 0 32.7913 0 22.1604V20.8407C0 10.0285 9.21187 0 23.4214 0C37.6919 0 46.9038 10.0285 46.9038 20.8407V22.1604C46.9038 32.7913 37.6919 43 23.4214 43Z" fill="#00A3E0"/><path fill-rule="evenodd" clip-rule="evenodd" d="M28.4548 14.1897C29.752 15.0401 30.1158 16.8077 29.2739 18.1343L22.712 28.4682C21.8691 29.7959 20.1348 30.1799 18.8397 29.3295C17.5446 28.477 17.1765 26.7137 18.0205 25.386L24.5824 15.0522C25.4253 13.7256 27.1597 13.3404 28.4548 14.1897Z" fill="#000"/></g></svg>
