<svg xmlns="http://www.w3.org/2000/svg" viewBox="0 0 20 20">
<path fill="#873EFF" d="M10 0C15.5228 0 20 4.47715 20 10C20 15.5228 15.5228 20 10 20C4.47715 20 0 15.5228 0 10C0 4.47715 4.47715 0 10 0ZM3.96289 6.48242C3.18274 6.48255 2.78715 6.84526 2.78711 7.51562C2.78716 8.186 3.20472 8.5711 3.96289 8.5713H4.80957V12.583C4.80963 13.7152 5.5685 14.3857 6.67871 14.3857C7.56882 14.3856 8.2837 13.9465 8.8223 12.9355L10.0205 10.6924V12.5947C10.0207 13.7156 10.7461 14.3857 11.8672 14.3857C12.7463 14.3856 13.3951 14.0014 14.0215 12.9355L16.7803 8.2744C17.3848 7.25229 16.9565 6.4827 15.627 6.48242C14.9124 6.48242 14.4499 6.71367 14.0322 7.49414L12.1309 11.0664V7.88965C12.1309 6.94438 11.68 6.48252 10.8447 6.48242C10.1852 6.48242 9.6577 6.76825 9.251 7.55957L7.45898 11.0664V7.92285C7.45898 6.91172 7.04118 6.48258 6.03027 6.48242H3.96289Z"/>
</svg>
