<svg width="26" height="26" viewBox="0 0 26 26" fill="none" xmlns="http://www.w3.org/2000/svg">
<rect width="26" height="26" rx="13" fill="#F6F7F7"/>
<path d="M19.7035 12.5821L16.8309 11.5912C15.6949 11.2009 14.7991 10.3051 14.4088 9.16908L13.4179 6.29651C13.2828 5.90116 12.7172 5.90116 12.5821 6.29651L11.5912 9.16908C11.2009 10.3051 10.3051 11.2009 9.16908 11.5912L6.29651 12.5821C5.90116 12.7172 5.90116 13.2828 6.29651 13.4179L9.16908 14.4088C10.3051 14.7991 11.2009 15.6949 11.5912 16.8309L12.5821 19.7035C12.7172 20.0988 13.2828 20.0988 13.4179 19.7035L14.4088 16.8309C14.7991 15.6949 15.6949 14.7991 16.8309 14.4088L19.7035 13.4179C20.0988 13.2828 20.0988 12.7172 19.7035 12.5821ZM16.3505 13.2127L14.9142 13.7081C14.3437 13.9033 13.8983 14.3537 13.7031 14.9192L13.2077 16.3555C13.1376 16.5557 12.8574 16.5557 12.7873 16.3555L12.2919 14.9192C12.0967 14.3487 11.6463 13.9033 11.0808 13.7081L9.6445 13.2127C9.44433 13.1426 9.44433 12.8624 9.6445 12.7923L11.0808 12.2969C11.6513 12.1017 12.0967 11.6513 12.2919 11.0858L12.7873 9.64951C12.8574 9.44933 13.1376 9.44933 13.2077 9.64951L13.7031 11.0858C13.8983 11.6563 14.3487 12.1017 14.9142 12.2969L16.3505 12.7923C16.5507 12.8624 16.5507 13.1426 16.3505 13.2127Z" fill="#3858E9"/>
</svg>
