<svg width="253" height="31" viewBox="0 0 253 31" fill="none" xmlns="http://www.w3.org/2000/svg">
<path d="M15.5006 31C24.0612 31 31.0012 24.0601 31.0012 15.4994C31.0012 6.93876 24.0612 0 15.5006 0C6.9399 0 0 6.9399 0 15.5006C0 24.0612 6.9399 31 15.5006 31Z" fill="#069E08"/>
<path d="M16.2695 12.8975V27.924L24.0198 12.8975H16.2695Z" fill="white"/>
<path d="M14.7009 18.074V3.07617L6.98047 18.074H14.7009Z" fill="white"/>
<path d="M49.6778 5.00294L56.3817 23.5053C56.9599 25.0884 57.8482 25.6623 59.367 25.7964C59.4225 25.7991 59.4769 25.8136 59.5268 25.8392C59.5768 25.8648 59.6212 25.9009 59.6573 25.9452C59.6934 25.9895 59.7205 26.0411 59.7369 26.0968C59.7532 26.1525 59.7586 26.2112 59.7525 26.2691C59.7547 26.329 59.7456 26.3887 59.7257 26.4448C59.7058 26.501 59.6755 26.5524 59.6366 26.5962C59.5976 26.6399 59.5507 26.6751 59.4987 26.6998C59.4467 26.7244 59.3905 26.738 59.3335 26.7397H51.9906C51.9313 26.7412 51.8722 26.73 51.8171 26.7069C51.7619 26.6838 51.7118 26.6493 51.6697 26.6053C51.6276 26.5614 51.5945 26.5089 51.5722 26.4511C51.5499 26.3933 51.5391 26.3314 51.5402 26.2691C51.5359 26.2087 51.5435 26.1479 51.5626 26.0907C51.5817 26.0335 51.6119 25.981 51.6512 25.9366C51.6906 25.8922 51.7383 25.8569 51.7913 25.8327C51.8443 25.8086 51.9014 25.7962 51.9592 25.7964C52.6966 25.7964 53.5325 25.5941 53.5325 24.6509C53.526 24.2575 53.4493 23.869 53.3063 23.5053L51.6973 19.0221C51.6324 18.8198 51.601 18.7516 51.4082 18.7516H45.2804C44.3168 18.7516 43.1289 18.7516 42.5821 20.0335L41.1157 23.5053C40.9665 23.8203 40.8789 24.1635 40.858 24.5145C40.858 25.7282 42.3684 25.7964 43.1624 25.7964C43.2202 25.7962 43.2774 25.8086 43.3304 25.8327C43.3834 25.8569 43.431 25.8922 43.4704 25.9366C43.5097 25.981 43.5399 26.0335 43.559 26.0907C43.5781 26.1479 43.5858 26.2087 43.5814 26.2691C43.5826 26.3315 43.5717 26.3935 43.5492 26.4513C43.5268 26.5092 43.4934 26.5616 43.4511 26.6054C43.4088 26.6492 43.3584 26.6835 43.303 26.7062C43.2476 26.7289 43.1883 26.7396 43.1289 26.7375H36.6136C36.5543 26.739 36.4954 26.7278 36.4403 26.7047C36.3853 26.6816 36.3353 26.647 36.2934 26.603C36.2514 26.559 36.2185 26.5065 36.1964 26.4488C36.1744 26.391 36.1638 26.3291 36.1652 26.2669C36.1609 26.2065 36.1685 26.1457 36.1876 26.0885C36.2068 26.0313 36.2369 25.9788 36.2763 25.9344C36.3156 25.89 36.3633 25.8547 36.4163 25.8305C36.4693 25.8064 36.5265 25.794 36.5842 25.7942C38.1576 25.6931 38.6792 24.9147 39.2805 23.5031L47.0193 5.70873C47.3733 4.93258 48.1443 4.25977 48.8503 4.25977C49.3573 4.26196 49.5186 4.56539 49.6778 5.00294ZM43.8119 17.0674C43.7731 17.1274 43.7506 17.1973 43.7469 17.2697C43.7469 17.3379 43.8119 17.3708 43.9397 17.3708H50.2979C50.7462 17.3708 50.939 17.2697 50.939 16.9663C50.9384 16.814 50.9054 16.6638 50.8426 16.5265L49.0765 11.5376C48.6575 10.392 48.05 8.87711 47.8573 7.62823C47.8573 7.56227 47.8237 7.52709 47.7923 7.52709C47.7609 7.52709 47.7295 7.56227 47.7295 7.62823C47.4883 8.48691 47.1764 9.32192 46.7972 10.1238L43.8119 17.0674Z" fill="black"/>
<path d="M49.6778 5.00294L56.3817 23.5053C56.9599 25.0884 57.8482 25.6623 59.367 25.7964C59.4225 25.7991 59.4769 25.8136 59.5268 25.8392C59.5768 25.8648 59.6212 25.9009 59.6573 25.9452C59.6934 25.9895 59.7205 26.0411 59.7369 26.0968C59.7532 26.1525 59.7586 26.2112 59.7525 26.2691C59.7547 26.329 59.7456 26.3887 59.7257 26.4448C59.7058 26.501 59.6755 26.5524 59.6366 26.5962C59.5976 26.6399 59.5507 26.6751 59.4987 26.6998C59.4467 26.7244 59.3905 26.738 59.3335 26.7397H51.9906C51.9313 26.7412 51.8722 26.73 51.8171 26.7069C51.7619 26.6838 51.7118 26.6493 51.6697 26.6053C51.6276 26.5614 51.5945 26.5089 51.5722 26.4511C51.5499 26.3933 51.5391 26.3314 51.5402 26.2691C51.5359 26.2087 51.5435 26.1479 51.5626 26.0907C51.5817 26.0335 51.6119 25.981 51.6512 25.9366C51.6906 25.8922 51.7383 25.8569 51.7913 25.8327C51.8443 25.8086 51.9014 25.7962 51.9592 25.7964C52.6966 25.7964 53.5325 25.5941 53.5325 24.6509C53.526 24.2575 53.4493 23.869 53.3063 23.5053L51.6973 19.0221C51.6324 18.8198 51.601 18.7516 51.4082 18.7516H45.2804C44.3168 18.7516 43.1289 18.7516 42.5821 20.0335L41.1157 23.5053C40.9665 23.8203 40.8789 24.1635 40.858 24.5145C40.858 25.7282 42.3684 25.7964 43.1624 25.7964C43.2202 25.7962 43.2774 25.8086 43.3304 25.8327C43.3834 25.8569 43.431 25.8922 43.4704 25.9366C43.5097 25.981 43.5399 26.0335 43.559 26.0907C43.5781 26.1479 43.5858 26.2087 43.5814 26.2691C43.5826 26.3315 43.5717 26.3935 43.5492 26.4513C43.5268 26.5092 43.4934 26.5616 43.4511 26.6054C43.4088 26.6492 43.3584 26.6835 43.303 26.7062C43.2476 26.7289 43.1883 26.7396 43.1289 26.7375H36.6136C36.5543 26.739 36.4954 26.7278 36.4403 26.7047C36.3853 26.6816 36.3353 26.647 36.2934 26.603C36.2514 26.559 36.2185 26.5065 36.1964 26.4488C36.1744 26.391 36.1638 26.3291 36.1652 26.2669C36.1609 26.2065 36.1685 26.1457 36.1876 26.0885C36.2068 26.0313 36.2369 25.9788 36.2763 25.9344C36.3156 25.89 36.3633 25.8547 36.4163 25.8305C36.4693 25.8064 36.5265 25.794 36.5842 25.7942C38.1576 25.6931 38.6792 24.9147 39.2805 23.5031L47.0193 5.70873C47.3733 4.93258 48.1443 4.25977 48.8503 4.25977C49.3573 4.26196 49.5186 4.56539 49.6778 5.00294ZM43.8119 17.0674C43.7731 17.1274 43.7506 17.1973 43.7469 17.2697C43.7469 17.3379 43.8119 17.3708 43.9397 17.3708H50.2979C50.7462 17.3708 50.939 17.2697 50.939 16.9663C50.9384 16.814 50.9054 16.6638 50.8426 16.5265L49.0765 11.5376C48.6575 10.392 48.05 8.87711 47.8573 7.62823C47.8573 7.56227 47.8237 7.52709 47.7923 7.52709C47.7609 7.52709 47.7295 7.56227 47.7295 7.62823C47.4883 8.48691 47.1764 9.32192 46.7972 10.1238L43.8119 17.0674Z" fill="black"/>
<path d="M61.7565 16.2732C61.7565 17.1395 61.2894 17.6298 60.4451 17.6298C59.6008 17.6298 59.2656 17.1791 59.2656 16.4909C59.2656 15.6246 59.7538 15.1343 60.5771 15.1343C61.4004 15.1343 61.7565 15.6048 61.7565 16.2732Z" fill="black"/>
<path d="M36.5967 16.3023C36.5967 17.1664 36.1274 17.6589 35.2852 17.6589C34.443 17.6589 34.1016 17.206 34.1016 16.5178C34.1016 15.6536 34.5897 15.1611 35.413 15.1611C36.2363 15.1611 36.5967 15.6339 36.5967 16.3023Z" fill="black"/>
<path d="M79.7775 19.668H73.9986L72.4965 23.578H69.5039L75.5924 8.23636H78.1608L84.2493 23.578H81.2796L79.7775 19.668ZM76.8651 11.9284C76.33 13.5337 75.8523 14.8752 75.4319 15.953L74.9044 17.3175H78.8717L78.3442 15.953C77.9238 14.8676 77.4461 13.526 76.911 11.9284H76.8651Z" fill="black"/>
<path d="M85.7288 6.9751H88.4463V16.9735H88.5036L92.7346 12.4673H96.0942L91.2211 17.6844L96.1286 23.578H92.8378L88.4922 18.4068H88.4463V23.578H85.7288V6.9751Z" fill="black"/>
<path d="M97.3444 12.4673H100.062V23.578H97.3444V12.4673ZM97.2756 6.9751H100.131V9.92188H97.2756V6.9751Z" fill="black"/>
<path d="M107.573 20.356C107.573 20.119 107.504 19.9241 107.366 19.7712C107.236 19.6183 107.06 19.4922 106.839 19.3928C106.617 19.2858 106.361 19.1941 106.071 19.1177C105.788 19.0412 105.49 18.9648 105.176 18.8883C104.779 18.7813 104.397 18.659 104.03 18.5214C103.663 18.3762 103.338 18.1889 103.055 17.9596C102.78 17.7303 102.558 17.4436 102.39 17.0996C102.229 16.748 102.149 16.3199 102.149 15.8154C102.149 15.1963 102.26 14.6612 102.482 14.2102C102.703 13.7515 103.001 13.3732 103.376 13.075C103.758 12.7769 104.198 12.5552 104.695 12.41C105.199 12.2648 105.73 12.1922 106.288 12.1922C106.969 12.1922 107.607 12.2495 108.203 12.3641C108.799 12.4712 109.338 12.6126 109.82 12.7884V15.0013C109.568 14.9173 109.3 14.8408 109.017 14.772C108.742 14.6956 108.459 14.6306 108.169 14.5771C107.886 14.5236 107.603 14.4815 107.32 14.451C107.038 14.4128 106.77 14.3936 106.518 14.3936C106.197 14.3936 105.925 14.4242 105.704 14.4854C105.482 14.5465 105.302 14.6306 105.165 14.7376C105.027 14.837 104.928 14.9555 104.867 15.0931C104.805 15.223 104.775 15.3606 104.775 15.5058C104.775 15.7581 104.84 15.9645 104.97 16.125C105.107 16.2855 105.295 16.4155 105.532 16.5149C105.769 16.6142 106.017 16.6983 106.277 16.7671C106.537 16.8283 106.789 16.8894 107.034 16.9506C107.416 17.0423 107.798 17.1531 108.18 17.2831C108.563 17.413 108.907 17.5965 109.212 17.8335C109.518 18.0628 109.766 18.3647 109.958 18.7393C110.156 19.1062 110.256 19.5763 110.256 20.1496C110.256 20.7764 110.137 21.323 109.9 21.7893C109.663 22.2555 109.331 22.6454 108.903 22.9588C108.482 23.2646 107.974 23.4901 107.378 23.6353C106.789 23.7882 106.139 23.8646 105.428 23.8646C104.725 23.8646 104.091 23.8073 103.525 23.6926C102.967 23.5856 102.505 23.448 102.138 23.2798V21.0898C102.734 21.3115 103.284 21.4644 103.789 21.5485C104.293 21.6249 104.763 21.6631 105.199 21.6631C105.535 21.6631 105.849 21.6402 106.139 21.5943C106.43 21.5408 106.678 21.4606 106.885 21.3535C107.099 21.2465 107.267 21.1128 107.389 20.9522C107.511 20.7841 107.573 20.5853 107.573 20.356Z" fill="black"/>
<path d="M126.446 16.813C126.446 16.576 126.439 16.3543 126.423 16.1479C126.408 15.9416 126.381 15.7619 126.343 15.609C126.259 15.2727 126.095 15.0013 125.85 14.795C125.605 14.5886 125.261 14.4815 124.818 14.4739C124.581 14.4739 124.336 14.5083 124.084 14.5771C123.832 14.6459 123.58 14.7453 123.327 14.8752C123.083 14.9975 122.846 15.1504 122.617 15.3339C122.395 15.5097 122.192 15.7084 122.009 15.9301V23.578H119.291V16.813C119.291 16.576 119.284 16.3543 119.268 16.1479C119.253 15.9416 119.226 15.7619 119.188 15.609C119.104 15.2727 118.94 15.0013 118.695 14.795C118.458 14.5886 118.114 14.4815 117.663 14.4739C117.426 14.4739 117.182 14.5083 116.929 14.5771C116.677 14.6459 116.425 14.7453 116.173 14.8752C115.928 14.9975 115.691 15.1504 115.462 15.3339C115.24 15.5097 115.037 15.7084 114.854 15.9301V23.578H112.137V12.4673H114.384L114.636 14.0153H114.682C114.843 13.7859 115.045 13.5604 115.29 13.3388C115.534 13.1171 115.81 12.9222 116.115 12.754C116.429 12.5858 116.769 12.4521 117.136 12.3527C117.51 12.2457 117.904 12.1922 118.317 12.1922C119.051 12.1922 119.708 12.3565 120.289 12.6852C120.878 13.0062 121.325 13.5108 121.63 14.1987H121.676C121.89 13.9006 122.127 13.6292 122.387 13.3846C122.655 13.14 122.949 12.9298 123.27 12.754C123.591 12.5782 123.935 12.4406 124.302 12.3412C124.677 12.2418 125.074 12.1922 125.495 12.1922C126.29 12.1998 126.955 12.368 127.49 12.6967C128.032 13.0177 128.449 13.4611 128.739 14.0267C128.816 14.172 128.881 14.3325 128.934 14.5083C128.988 14.6765 129.03 14.8676 129.06 15.0816C129.099 15.2956 129.125 15.5326 129.141 15.7925C129.156 16.0524 129.164 16.3505 129.164 16.6869V23.578H126.446V16.813Z" fill="black"/>
<path d="M137.408 21.6746C137.936 21.6746 138.486 21.6211 139.059 21.5141C139.633 21.4071 140.214 21.2542 140.802 21.0554V23.2225C140.451 23.3754 139.912 23.5206 139.185 23.6582C138.459 23.7958 137.706 23.8646 136.927 23.8646C136.139 23.8646 135.39 23.7652 134.679 23.5665C133.976 23.3601 133.361 23.0314 132.833 22.5804C132.306 22.1294 131.885 21.5446 131.572 20.8261C131.266 20.1076 131.113 19.2361 131.113 18.2118C131.113 17.2028 131.259 16.3199 131.549 15.5632C131.84 14.8064 132.229 14.1796 132.719 13.6827C133.208 13.1859 133.766 12.8151 134.393 12.5705C135.027 12.3183 135.681 12.1922 136.353 12.1922C137.057 12.1922 137.703 12.2992 138.291 12.5132C138.887 12.7272 139.4 13.0636 139.828 13.5222C140.263 13.9809 140.6 14.5733 140.837 15.2995C141.081 16.018 141.203 16.8703 141.203 17.8564C141.196 18.2386 141.184 18.5635 141.169 18.831H133.888C133.926 19.3432 134.041 19.7827 134.232 20.1496C134.423 20.5089 134.672 20.8032 134.977 21.0325C135.291 21.2542 135.654 21.4185 136.067 21.5255C136.479 21.6249 136.927 21.6746 137.408 21.6746ZM136.319 14.3134C135.975 14.3134 135.669 14.3784 135.402 14.5083C135.134 14.6306 134.901 14.8026 134.702 15.0243C134.511 15.2383 134.358 15.4906 134.244 15.781C134.129 16.0715 134.052 16.3811 134.014 16.7098H138.383C138.383 16.3811 138.337 16.0715 138.245 15.781C138.161 15.4906 138.031 15.2383 137.855 15.0243C137.687 14.8026 137.473 14.6306 137.213 14.5083C136.961 14.3784 136.663 14.3134 136.319 14.3134Z" fill="black"/>
<path d="M150.044 23.5665C149.739 23.6582 149.372 23.7308 148.944 23.7843C148.523 23.8379 148.129 23.8646 147.763 23.8646C146.83 23.8646 146.066 23.7156 145.469 23.4174C144.881 23.1117 144.464 22.676 144.22 22.1103C144.044 21.7052 143.956 21.1548 143.956 20.4592V14.7032H141.88V12.4673H143.956V9.36004H146.673V12.4673H149.884V14.7032H146.673V20.1037C146.673 20.5318 146.738 20.849 146.868 21.0554C147.098 21.4071 147.552 21.5829 148.233 21.5829C148.546 21.5829 148.856 21.5599 149.161 21.5141C149.475 21.4606 149.769 21.3956 150.044 21.3191V23.5665Z" fill="black"/>
<path d="M156.242 23.5774L162.491 8.23579H164.108L170.357 23.5774H168.327L166.493 18.9566H160.083L158.249 23.5774H156.242ZM163.282 10.6207C162.602 12.5317 161.948 14.2669 161.322 15.8263L160.748 17.271H165.828L165.255 15.8263C164.628 14.2364 163.986 12.5012 163.328 10.6207H163.282Z" fill="black"/>
<path d="M173.74 14.1981H173.774C173.973 13.9459 174.191 13.7127 174.428 13.4987C174.672 13.277 174.944 13.0859 175.242 12.9254C175.54 12.7572 175.865 12.6273 176.217 12.5356C176.576 12.4438 176.966 12.398 177.386 12.398C177.883 12.398 178.349 12.4668 178.785 12.6044C179.221 12.742 179.599 12.9636 179.92 13.2694C180.241 13.5752 180.493 13.9765 180.677 14.4733C180.868 14.9625 180.963 15.5664 180.963 16.285V23.5774H179.186V16.5716C179.186 15.6314 179.003 14.9549 178.636 14.5421C178.277 14.1293 177.749 13.923 177.054 13.923C176.442 13.923 175.85 14.0949 175.276 14.4389C174.703 14.7753 174.21 15.2416 173.797 15.8378V23.5774H172.02V12.6846H173.396L173.74 14.1981Z" fill="black"/>
<path d="M189.678 23.6003C189.525 23.6615 189.292 23.7188 188.979 23.7723C188.665 23.8258 188.291 23.8564 187.855 23.864C187.282 23.864 186.785 23.7914 186.364 23.6462C185.944 23.5086 185.592 23.3098 185.31 23.0499C185.034 22.7824 184.828 22.4614 184.69 22.0868C184.553 21.7122 184.484 21.2956 184.484 20.837V14.2096H182.386V12.6846H184.484V9.70344H186.261V12.6846H189.518V14.2096H186.261V20.5618C186.261 20.8141 186.296 21.0472 186.364 21.2612C186.441 21.4753 186.556 21.6626 186.708 21.8231C186.869 21.976 187.072 22.0983 187.316 22.19C187.561 22.2741 187.855 22.3161 188.199 22.3161C188.436 22.3161 188.684 22.297 188.944 22.2588C189.212 22.2206 189.456 22.1709 189.678 22.1097V23.6003Z" fill="black"/>
<path d="M191.743 23.5774V12.6846H193.52V23.5774H191.743ZM191.697 10.1506V8.16699H193.566V10.1506H191.697Z" fill="black"/>
<path d="M196.272 17.0303H201.329V18.6928H196.272V17.0303Z" fill="black"/>
<path d="M205.113 15.5855C205.113 15.8837 205.178 16.1283 205.308 16.3194C205.438 16.5105 205.61 16.6672 205.824 16.7895C206.045 16.9041 206.298 16.9997 206.581 17.0761C206.871 17.1526 207.169 17.2214 207.475 17.2825C207.895 17.3742 208.293 17.4774 208.667 17.5921C209.042 17.6991 209.386 17.8635 209.699 18.0851C210.02 18.3068 210.276 18.6088 210.468 18.991C210.666 19.3655 210.766 19.8547 210.766 20.4586C210.766 21.009 210.659 21.4982 210.445 21.9263C210.231 22.3467 209.929 22.7021 209.539 22.9926C209.149 23.2754 208.683 23.4895 208.14 23.6347C207.597 23.7876 207.001 23.864 206.351 23.864C205.954 23.864 205.591 23.8411 205.262 23.7952C204.941 23.757 204.654 23.7035 204.402 23.6347C204.157 23.5736 203.947 23.5086 203.771 23.4398C203.596 23.371 203.45 23.306 203.336 23.2449V21.7543C203.794 21.9377 204.249 22.083 204.7 22.19C205.151 22.297 205.648 22.3505 206.191 22.3505C206.619 22.3505 207.005 22.3123 207.349 22.2359C207.693 22.1594 207.987 22.0486 208.232 21.9033C208.484 21.7505 208.675 21.5632 208.805 21.3415C208.943 21.1122 209.011 20.8485 209.011 20.5503C209.011 20.2446 208.95 19.9923 208.828 19.7936C208.706 19.5948 208.541 19.4305 208.335 19.3005C208.128 19.1706 207.888 19.0636 207.612 18.9795C207.345 18.8954 207.062 18.819 206.764 18.7502C206.374 18.6661 205.977 18.5667 205.571 18.4521C205.174 18.3374 204.811 18.1769 204.482 17.9705C204.154 17.7641 203.886 17.4851 203.68 17.1335C203.481 16.7742 203.381 16.3155 203.381 15.7575C203.381 15.1842 203.485 14.6874 203.691 14.2669C203.897 13.8465 204.176 13.4987 204.528 13.2235C204.88 12.9483 205.289 12.742 205.755 12.6044C206.221 12.4668 206.714 12.398 207.234 12.398C207.838 12.398 208.396 12.4553 208.908 12.57C209.428 12.6846 209.898 12.8299 210.318 13.0057V14.5192C209.86 14.3434 209.394 14.202 208.92 14.0949C208.453 13.9803 207.972 13.9191 207.475 13.9115C207.054 13.9115 206.695 13.9535 206.397 14.0376C206.099 14.1217 205.854 14.2402 205.663 14.3931C205.472 14.5383 205.331 14.7141 205.239 14.9205C205.155 15.1192 205.113 15.3409 205.113 15.5855Z" fill="black"/>
<path d="M220.787 18.0278C220.787 17.3934 220.719 16.8239 220.581 16.3194C220.451 15.8149 220.252 15.3868 219.985 15.0352C219.717 14.6759 219.389 14.4007 218.999 14.2096C218.609 14.0185 218.158 13.923 217.646 13.923C217.279 13.923 216.942 13.9726 216.637 14.072C216.339 14.1714 216.067 14.2975 215.823 14.4504C215.578 14.6033 215.368 14.7676 215.192 14.9434C215.016 15.1192 214.875 15.276 214.768 15.4135V21.1122C215.142 21.4944 215.567 21.7963 216.04 22.018C216.522 22.2397 217.038 22.3505 217.588 22.3505C217.925 22.3505 218.28 22.2894 218.655 22.1671C219.029 22.0371 219.373 21.8116 219.687 21.4906C220.008 21.1619 220.271 20.7185 220.478 20.1605C220.684 19.6025 220.787 18.8916 220.787 18.0278ZM222.645 18.0049C222.645 18.7616 222.568 19.4343 222.416 20.0229C222.27 20.6039 222.075 21.1122 221.831 21.5479C221.586 21.9836 221.3 22.3505 220.971 22.6486C220.642 22.9391 220.302 23.1761 219.95 23.3595C219.599 23.5353 219.24 23.6615 218.873 23.7379C218.513 23.822 218.173 23.864 217.852 23.864C217.187 23.864 216.61 23.757 216.121 23.543C215.632 23.3213 215.192 22.9964 214.802 22.5684H214.768V28.9091H212.99V12.6846H214.332L214.71 13.923H214.745C214.844 13.7701 214.97 13.621 215.123 13.4758C215.284 13.3305 215.494 13.1777 215.754 13.0171C216.021 12.849 216.339 12.7037 216.706 12.5814C217.08 12.4591 217.485 12.398 217.921 12.398C218.532 12.398 219.121 12.5012 219.687 12.7076C220.26 12.9139 220.764 13.2426 221.2 13.6936C221.636 14.1446 221.984 14.7256 222.244 15.4365C222.511 16.1397 222.645 16.9959 222.645 18.0049Z" fill="black"/>
<path d="M231.371 22.3734H231.325C231.18 22.5569 230.997 22.7404 230.775 22.9238C230.553 23.0996 230.297 23.2602 230.007 23.4054C229.716 23.543 229.399 23.6538 229.055 23.7379C228.711 23.822 228.344 23.864 227.954 23.864C227.427 23.864 226.941 23.7838 226.498 23.6232C226.062 23.4704 225.684 23.2449 225.363 22.9468C225.049 22.641 224.805 22.2703 224.629 21.8345C224.453 21.3988 224.365 20.9058 224.365 20.3554C224.365 19.8127 224.461 19.3273 224.652 18.8992C224.851 18.4712 225.126 18.1081 225.478 17.81C225.829 17.5118 226.25 17.2825 226.739 17.122C227.236 16.9615 227.782 16.8812 228.378 16.8812C228.944 16.8888 229.468 16.9385 229.949 17.0303C230.431 17.122 230.859 17.2366 231.233 17.3742H231.279V16.6175C231.279 16.3194 231.26 16.0556 231.222 15.8263C231.184 15.597 231.119 15.3944 231.027 15.2186C230.828 14.8517 230.511 14.5498 230.075 14.3128C229.64 14.0682 229.051 13.9459 228.31 13.9459C227.759 13.9459 227.239 13.9994 226.75 14.1064C226.269 14.2058 225.787 14.3472 225.306 14.5307V13.0401C225.489 12.9483 225.703 12.8643 225.948 12.7878C226.2 12.7037 226.464 12.6349 226.739 12.5814C227.014 12.5203 227.304 12.4744 227.61 12.4438C227.916 12.4133 228.222 12.398 228.527 12.398C229.628 12.398 230.526 12.5929 231.222 12.9827C231.925 13.3726 232.43 13.8886 232.736 14.5307C232.85 14.7753 232.93 15.0466 232.976 15.3447C233.03 15.6352 233.057 15.9563 233.057 16.3079V23.5774H231.566L231.371 22.3734ZM231.279 18.796C230.951 18.7043 230.561 18.6164 230.11 18.5323C229.659 18.4482 229.162 18.4024 228.619 18.3947C227.862 18.3947 227.27 18.5552 226.842 18.8763C226.414 19.1973 226.2 19.6904 226.2 20.3554C226.2 20.6918 226.253 20.9861 226.36 21.2383C226.467 21.4906 226.613 21.7008 226.796 21.8689C226.987 22.0295 227.209 22.1518 227.461 22.2359C227.721 22.3123 227.996 22.3505 228.287 22.3505C228.669 22.3505 229.024 22.297 229.353 22.19C229.682 22.0753 229.972 21.9416 230.224 21.7887C230.484 21.6358 230.702 21.4829 230.878 21.33C231.061 21.1772 231.195 21.0587 231.279 20.9746V18.796Z" fill="black"/>
<path d="M244.936 23.5774H243.159V16.5716C243.159 16.0977 243.105 15.6964 242.998 15.3677C242.899 15.0313 242.75 14.7562 242.551 14.5421C242.36 14.3281 242.127 14.1714 241.852 14.072C241.584 13.9726 241.282 13.923 240.946 13.923C240.311 13.923 239.734 14.0949 239.214 14.4389C238.695 14.7753 238.228 15.2416 237.815 15.8378V23.5774H236.038V12.6846H237.414L237.758 14.1981H237.793C237.991 13.9459 238.205 13.7127 238.435 13.4987C238.672 13.277 238.931 13.0859 239.214 12.9254C239.505 12.7572 239.822 12.6273 240.166 12.5356C240.51 12.4438 240.885 12.398 241.29 12.398C242.1 12.398 242.773 12.5929 243.308 12.9827C243.843 13.3726 244.256 13.9038 244.546 14.5765H244.592C245.073 13.8962 245.624 13.3649 246.243 12.9827C246.862 12.5929 247.585 12.398 248.41 12.398C248.792 12.398 249.197 12.4515 249.625 12.5585C250.054 12.6655 250.447 12.8643 250.807 13.1547C251.166 13.4376 251.464 13.8312 251.701 14.3357C251.938 14.8402 252.056 15.49 252.056 16.285V23.5774H250.291V16.5716C250.291 16.0977 250.237 15.6964 250.13 15.3677C250.031 15.0313 249.882 14.7562 249.683 14.5421C249.492 14.3281 249.259 14.1714 248.983 14.072C248.716 13.9726 248.414 13.923 248.078 13.923C247.443 13.923 246.862 14.0949 246.335 14.4389C245.815 14.7753 245.349 15.2416 244.936 15.8378V23.5774Z" fill="black"/>
</svg>
