<svg width="20" height="20" viewBox="0 0 20 20" fill="none" xmlns="http://www.w3.org/2000/svg">
<path d="M17.6647 15.0275C17.3774 15.6563 17.0374 16.2352 16.6434 16.7674C16.1064 17.4929 15.6667 17.9952 15.3279 18.274C14.8026 18.7318 14.2398 18.9662 13.6371 18.9796C13.2045 18.9796 12.6827 18.8629 12.0753 18.6262C11.466 18.3907 10.906 18.274 10.394 18.274C9.85695 18.274 9.28102 18.3907 8.66499 18.6262C8.04801 18.8629 7.55099 18.9862 7.17098 18.9985C6.59305 19.0218 6.017 18.7807 5.442 18.274C5.07501 17.9707 4.61598 17.4507 4.06607 16.7141C3.47607 15.9274 2.991 15.0152 2.61099 13.9753C2.20402 12.852 2 11.7642 2 10.7112C2 9.50486 2.27507 8.46444 2.82603 7.59258C3.25904 6.89227 3.83509 6.33984 4.55606 5.9343C5.27703 5.52875 6.05605 5.32209 6.89497 5.30887C7.35401 5.30887 7.95597 5.44342 8.70403 5.70786C9.44998 5.97319 9.92895 6.10774 10.1389 6.10774C10.2959 6.10774 10.828 5.95041 11.73 5.63675C12.583 5.34587 13.3029 5.22543 13.8927 5.27287C15.4908 5.39509 16.6915 5.99207 17.49 7.0676C16.0607 7.88824 15.3537 9.03765 15.3677 10.5122C15.3806 11.6607 15.8203 12.6164 16.6844 13.3753C17.0761 13.7275 17.5134 13.9997 18 14.193C17.8945 14.483 17.7831 14.7608 17.6647 15.0275ZM13.9994 1.3601C13.9994 2.26031 13.6524 3.10083 12.9606 3.8788C12.1258 4.80366 11.116 5.33809 10.021 5.25376C10.007 5.14577 9.99894 5.0321 9.99894 4.91266C9.99894 4.04847 10.396 3.1236 11.101 2.3674C11.453 1.98453 11.9006 1.66617 12.4435 1.41221C12.9852 1.16204 13.4976 1.02369 13.9795 1C13.9936 1.12034 13.9994 1.24071 13.9994 1.3601Z" fill="black"/>
</svg>
