<svg width="20" height="20" viewBox="0 0 20 20" fill="none" xmlns="http://www.w3.org/2000/svg">
<path d="M18.36 10.1979C18.36 9.58042 18.3046 8.98667 18.2017 8.41667H10V11.7892H14.6867C14.4808 12.8738 13.8633 13.7921 12.9371 14.4096V16.6025H15.7633C17.41 15.0825 18.36 12.85 18.36 10.1979Z" fill="#4285F4"/>
<path d="M10 18.7083C12.3512 18.7083 14.3225 17.9325 15.7633 16.6025L12.9371 14.4096C12.1612 14.9321 11.1717 15.2488 10 15.2488C7.73583 15.2488 5.81208 13.7208 5.12333 11.6625H2.22583V13.9108C3.65875 16.7529 6.59583 18.7083 10 18.7083Z" fill="#34A853"/>
<path d="M5.12329 11.6546C4.94913 11.1321 4.84621 10.5779 4.84621 9.99999C4.84621 9.42208 4.94913 8.86791 5.12329 8.34541V6.09708H2.22579C1.63204 7.26874 1.29163 8.59083 1.29163 9.99999C1.29163 11.4092 1.63204 12.7312 2.22579 13.9029L4.48204 12.1454L5.12329 11.6546Z" fill="#FBBC05"/>
<path d="M10 4.75917C11.2825 4.75917 12.4225 5.20251 13.3329 6.05751L15.8267 3.56376C14.3146 2.15459 12.3512 1.29167 10 1.29167C6.59583 1.29167 3.65875 3.24709 2.22583 6.09709L5.12333 8.34542C5.81208 6.28709 7.73583 4.75917 10 4.75917Z" fill="#EA4335"/>
</svg>
