<svg width="24" height="24" viewBox="0 0 24 24" fill="none" xmlns="http://www.w3.org/2000/svg">
<path fill-rule="evenodd" clip-rule="evenodd" d="M7 3.5C6.60218 3.5 6.22064 3.65804 5.93934 3.93934C5.65804 4.22064 5.5 4.60218 5.5 5V19C5.5 19.3978 5.65804 19.7794 5.93934 20.0607C6.22064 20.342 6.60218 20.5 7 20.5H17C17.3978 20.5 17.7794 20.342 18.0607 20.0607C18.342 19.7794 18.5 19.3978 18.5 19V9.41411V9.41411C18.4999 9.28155 18.4473 9.15433 18.3535 9.06061L12.9394 3.64655C12.8457 3.5528 12.7186 3.50006 12.586 3.5V3.5H7ZM5.23223 3.23223C5.70107 2.76339 6.33696 2.5 7 2.5H12.586C12.9838 2.50008 13.3653 2.65816 13.6466 2.93945M13.6466 2.93945L19.0605 8.35339V8.35339C19.3418 8.63463 19.4999 9.01613 19.5 9.41389V19C19.5 19.663 19.2366 20.2989 18.7678 20.7678C18.2989 21.2366 17.663 21.5 17 21.5H7C6.33696 21.5 5.70107 21.2366 5.23223 20.7678C4.76339 20.2989 4.5 19.663 4.5 19V5C4.5 4.33696 4.76339 3.70107 5.23223 3.23223" fill="#1E1E1E"/>
<path fill-rule="evenodd" clip-rule="evenodd" d="M10.2222 9.5C10.4984 9.5 10.7222 9.72386 10.7222 10V10.3889H13.2778V10C13.2778 9.72386 13.5016 9.5 13.7778 9.5C14.0539 9.5 14.2778 9.72386 14.2778 10V10.3889H15.1111C15.4795 10.3889 15.8327 10.5352 16.0932 10.7957C16.3537 11.0562 16.5 11.4094 16.5 11.7778V17.1111C16.5 17.4795 16.3537 17.8327 16.0932 18.0932C15.8327 18.3537 15.4795 18.5 15.1111 18.5H8.88889C8.52053 18.5 8.16726 18.3537 7.9068 18.0932C7.64633 17.8327 7.5 17.4795 7.5 17.1111V11.7778C7.5 11.4094 7.64633 11.0562 7.9068 10.7957C8.16726 10.5352 8.52053 10.3889 8.88889 10.3889H9.72222V10C9.72222 9.72386 9.94608 9.5 10.2222 9.5ZM9.72222 11.3889H8.88889C8.78575 11.3889 8.68683 11.4299 8.6139 11.5028C8.54097 11.5757 8.5 11.6746 8.5 11.7778V17.1111C8.5 17.2143 8.54097 17.3132 8.6139 17.3861C8.68683 17.459 8.78575 17.5 8.88889 17.5H15.1111C15.2143 17.5 15.3132 17.459 15.3861 17.3861C15.459 17.3132 15.5 17.2143 15.5 17.1111V11.7778C15.5 11.6746 15.459 11.5757 15.3861 11.5028C15.3132 11.4299 15.2143 11.3889 15.1111 11.3889H14.2778V11.7778C14.2778 12.0539 14.0539 12.2778 13.7778 12.2778C13.5016 12.2778 13.2778 12.0539 13.2778 11.7778V11.3889H10.7222V11.7778C10.7222 12.0539 10.4984 12.2778 10.2222 12.2778C9.94608 12.2778 9.72222 12.0539 9.72222 11.7778V11.3889ZM9.27778 13.5556C9.27778 13.2794 9.50164 13.0556 9.77778 13.0556H14.2222C14.4984 13.0556 14.7222 13.2794 14.7222 13.5556C14.7222 13.8317 14.4984 14.0556 14.2222 14.0556H9.77778C9.50164 14.0556 9.27778 13.8317 9.27778 13.5556Z" fill="#1E1E1E"/>
</svg>
