<svg width="24" height="24" viewBox="0 0 24 24" fill="none" xmlns="http://www.w3.org/2000/svg">
<path fill-rule="evenodd" clip-rule="evenodd" d="M7 3.5C6.60218 3.5 6.22064 3.65804 5.93934 3.93934C5.65804 4.22064 5.5 4.60218 5.5 5V19C5.5 19.3978 5.65804 19.7794 5.93934 20.0607C6.22064 20.342 6.60218 20.5 7 20.5H17C17.3978 20.5 17.7794 20.342 18.0607 20.0607C18.342 19.7794 18.5 19.3978 18.5 19V9.41411V9.41411C18.4999 9.28155 18.4473 9.15433 18.3535 9.06061L12.9394 3.64655C12.8457 3.5528 12.7186 3.50006 12.586 3.5V3.5H7ZM5.23223 3.23223C5.70107 2.76339 6.33696 2.5 7 2.5H12.586C12.9838 2.50008 13.3653 2.65816 13.6466 2.93945M13.6466 2.93945L19.0605 8.35339V8.35339C19.3418 8.63463 19.4999 9.01613 19.5 9.41389V19C19.5 19.663 19.2366 20.2989 18.7678 20.7678C18.2989 21.2366 17.663 21.5 17 21.5H7C6.33696 21.5 5.70107 21.2366 5.23223 20.7678C4.76339 20.2989 4.5 19.663 4.5 19V5C4.5 4.33696 4.76339 3.70107 5.23223 3.23223" fill="#1E1E1E"/>
<path fill-rule="evenodd" clip-rule="evenodd" d="M11.5 10.5795L9.50295 12.5766C9.40918 12.6704 9.282 12.7231 9.14939 12.7231H8.50008V14.3897H9.14939C9.282 14.3897 9.40918 14.4424 9.50295 14.5361L11.5 16.5332V10.5795ZM10.8878 9.77754C11.4827 9.18262 12.5 9.60377 12.5 10.4453V16.6674C12.5 17.509 11.4827 17.9301 10.8878 17.3352L8.94229 15.3897H8.44451C8.19403 15.3897 7.95381 15.2902 7.7767 15.1131C7.59958 14.936 7.50008 14.6957 7.50008 14.4453V12.6675C7.50008 12.417 7.59958 12.1768 7.7767 11.9997C7.95381 11.8226 8.19403 11.7231 8.44451 11.7231H8.94229L10.8878 9.77754ZM14.4749 10.3744C14.6701 10.1792 14.9867 10.1792 15.182 10.3744C15.5998 10.7923 15.9313 11.2883 16.1575 11.8343C16.3836 12.3803 16.5 12.9654 16.5 13.5564C16.5 14.1473 16.3836 14.7325 16.1575 15.2784C15.9313 15.8244 15.5998 16.3205 15.182 16.7383C14.9867 16.9336 14.6701 16.9336 14.4749 16.7383C14.2796 16.5431 14.2796 16.2265 14.4749 16.0312C14.7999 15.7062 15.0577 15.3204 15.2336 14.8958C15.4095 14.4711 15.5 14.016 15.5 13.5564C15.5 13.0968 15.4095 12.6416 15.2336 12.217C15.0577 11.7924 14.7999 11.4065 14.4749 11.0815C14.2796 10.8863 14.2796 10.5697 14.4749 10.3744ZM13.218 11.6313C13.4132 11.436 13.7298 11.436 13.9251 11.6312C14.1779 11.884 14.3785 12.1842 14.5153 12.5145C14.6522 12.8448 14.7226 13.1988 14.7226 13.5564C14.7226 13.9139 14.6522 14.268 14.5153 14.5983C14.3785 14.9286 14.1779 15.2287 13.9251 15.4815C13.7298 15.6767 13.4132 15.6767 13.218 15.4814C13.0227 15.2861 13.0228 14.9695 13.218 14.7743C13.378 14.6144 13.5049 14.4245 13.5915 14.2155C13.6781 14.0066 13.7226 13.7826 13.7226 13.5564C13.7226 13.3302 13.6781 13.1062 13.5915 12.8972C13.5049 12.6882 13.378 12.4984 13.218 12.3384C13.0228 12.1432 13.0227 11.8266 13.218 11.6313Z" fill="#1E1E1E"/>
</svg>
