<svg width="24" height="24" viewBox="0 0 24 24" fill="none" xmlns="http://www.w3.org/2000/svg">
<path fill-rule="evenodd" clip-rule="evenodd" d="M7 3.5C6.60218 3.5 6.22064 3.65804 5.93934 3.93934C5.65804 4.22064 5.5 4.60218 5.5 5V19C5.5 19.3978 5.65804 19.7794 5.93934 20.0607C6.22064 20.342 6.60218 20.5 7 20.5H17C17.3978 20.5 17.7794 20.342 18.0607 20.0607C18.342 19.7794 18.5 19.3978 18.5 19V9.41411V9.41411C18.4999 9.28155 18.4473 9.15433 18.3535 9.06061L12.9394 3.64655C12.8457 3.5528 12.7186 3.50006 12.586 3.5V3.5H7ZM5.23223 3.23223C5.70107 2.76339 6.33696 2.5 7 2.5H12.586C12.9838 2.50008 13.3653 2.65816 13.6466 2.93945M13.6466 2.93945L19.0605 8.35339V8.35339C19.3418 8.63463 19.4999 9.01613 19.5 9.41389V19C19.5 19.663 19.2366 20.2989 18.7678 20.7678C18.2989 21.2366 17.663 21.5 17 21.5H7C6.33696 21.5 5.70107 21.2366 5.23223 20.7678C4.76339 20.2989 4.5 19.663 4.5 19V5C4.5 4.33696 4.76339 3.70107 5.23223 3.23223" fill="#1E1E1E"/>
<path fill-rule="evenodd" clip-rule="evenodd" d="M7.47188 9.97188C7.77403 9.66974 8.18382 9.5 8.61111 9.5H12.3889C12.8162 9.5 13.226 9.66974 13.5281 9.97188C13.8303 10.274 14 10.6838 14 11.1111V11.3574L15.4466 10.5245C15.4552 10.5196 15.4638 10.5149 15.4726 10.5105C15.6335 10.4301 15.8123 10.3922 15.9919 10.4003C16.1716 10.4083 16.3462 10.4622 16.4993 10.5568C16.6523 10.6513 16.7786 10.7833 16.8662 10.9404C16.9539 11.0975 16.9999 11.2743 17 11.4542V15.2122C16.9999 15.3921 16.9539 15.5692 16.8662 15.7263C16.7786 15.8833 16.6523 16.0154 16.4993 16.1099C16.3462 16.2045 16.1716 16.2583 15.9919 16.2664C15.8123 16.2745 15.6335 16.2366 15.4726 16.1562C15.4638 16.1518 15.4552 16.1471 15.4466 16.1422L14 15.3093V15.5556C14 15.9828 13.8303 16.3926 13.5281 16.6948C13.226 16.9969 12.8162 17.1667 12.3889 17.1667H8.61111C8.18382 17.1667 7.77403 16.9969 7.47188 16.6948C7.16974 16.3926 7 15.9828 7 15.5556V11.1111C7 10.6838 7.16974 10.274 7.47188 9.97188ZM14 14.1554L15.9262 15.2644C15.9328 15.2667 15.9399 15.2677 15.9469 15.2674C15.9564 15.267 15.9656 15.2642 15.9736 15.2592C15.9817 15.2542 15.9884 15.2473 15.993 15.239C15.9976 15.2307 16 15.2214 16 15.212V11.4547C16 11.4452 15.9976 11.4359 15.993 11.4277C15.9884 11.4194 15.9817 11.4125 15.9736 11.4075C15.9656 11.4025 15.9564 11.3997 15.9469 11.3992C15.9399 11.3989 15.9328 11.4 15.9262 11.4023L14 12.5113V14.1554ZM13 11.1111C13 10.949 12.9356 10.7936 12.821 10.679C12.7064 10.5644 12.551 10.5 12.3889 10.5H8.61111C8.44904 10.5 8.2936 10.5644 8.17899 10.679C8.06439 10.7936 8 10.949 8 11.1111V15.5556C8 15.7176 8.06439 15.8731 8.17899 15.9877C8.2936 16.1023 8.44904 16.1667 8.61111 16.1667H12.3889C12.551 16.1667 12.7064 16.1023 12.821 15.9877C12.9356 15.8731 13 15.7176 13 15.5556V11.1111Z" fill="#1E1E1E"/>
</svg>
