<svg width="24" height="24" viewBox="0 0 24 24" fill="none" xmlns="http://www.w3.org/2000/svg">
<path fill-rule="evenodd" clip-rule="evenodd" d="M7 3.5C6.60218 3.5 6.22064 3.65804 5.93934 3.93934C5.65804 4.22064 5.5 4.60218 5.5 5V19C5.5 19.3978 5.65804 19.7794 5.93934 20.0607C6.22064 20.342 6.60218 20.5 7 20.5H17C17.3978 20.5 17.7794 20.342 18.0607 20.0607C18.342 19.7794 18.5 19.3978 18.5 19V9.41411V9.41411C18.4999 9.28155 18.4473 9.15433 18.3535 9.06061L12.9394 3.64655C12.8457 3.5528 12.7186 3.50006 12.586 3.5V3.5H7ZM5.23223 3.23223C5.70107 2.76339 6.33696 2.5 7 2.5H12.586C12.9838 2.50008 13.3653 2.65816 13.6466 2.93945M13.6466 2.93945L19.0605 8.35339V8.35339C19.3418 8.63463 19.4999 9.01613 19.5 9.41389V19C19.5 19.663 19.2366 20.2989 18.7678 20.7678C18.2989 21.2366 17.663 21.5 17 21.5H7C6.33696 21.5 5.70107 21.2366 5.23223 20.7678C4.76339 20.2989 4.5 19.663 4.5 19V5C4.5 4.33696 4.76339 3.70107 5.23223 3.23223" fill="#1E1E1E"/>
<path d="M10.1585 8.00247C9.6709 7.99394 9.25005 8.47889 9.35319 8.96337C9.42257 9.70371 9.89993 10.3045 10.2724 10.9158C10.3143 11.1434 10.1943 11.3651 10.1862 11.5911C9.94336 12.9178 9.57284 14.2376 9.0028 15.4553C8.29745 15.78 7.49877 16.1007 7.0862 16.8006C6.82436 17.2861 7.19304 17.9415 7.73422 17.9927C8.2363 18.0614 8.60895 17.6311 8.88342 17.2706C9.16999 16.8829 9.35855 16.4211 9.59699 16.0044C11.0401 15.4232 12.558 15.0171 14.1078 14.8629C14.7343 15.3114 15.3983 15.8404 16.2017 15.8724C16.6687 15.8654 17.0466 15.4121 16.9953 14.9516C16.9653 14.5324 16.5928 14.2384 16.2069 14.1597C15.5847 13.9722 14.9181 14.0748 14.2851 14.0794C13.0669 13.106 11.9423 11.9861 11.0566 10.7046C11.1224 9.9256 11.2543 9.06387 10.8487 8.35515C10.6947 8.13164 10.4336 7.9785 10.1585 8.00247ZM10.1817 8.70995C10.3188 8.73637 10.328 8.94067 10.3664 9.04996C10.4025 9.27263 10.3986 9.49984 10.3959 9.7247C10.2326 9.41939 10.0204 9.10045 10.0582 8.73846C10.1013 8.73678 10.1394 8.71495 10.1817 8.70995ZM10.9373 11.7479C11.6634 12.6505 12.4698 13.4818 13.35 14.2357C12.1895 14.4127 11.0366 14.7091 9.93261 15.1089C10.3561 14.0022 10.6785 12.8588 10.8909 11.6919C10.9064 11.7106 10.9219 11.7292 10.9373 11.7479ZM15.4661 14.7827C15.7476 14.8098 16.0725 14.7935 16.2977 14.9875C16.3189 15.1626 16.1047 15.1882 15.9906 15.1248C15.7526 15.0453 15.5172 14.9454 15.3151 14.7932C15.3655 14.7901 15.4156 14.7836 15.4661 14.7827ZM8.43183 16.6242C8.29797 16.8732 8.10314 17.1079 7.89991 17.2842C7.83229 17.3937 7.64672 17.1912 7.73211 17.1057C7.90842 16.8298 8.21622 16.6835 8.48882 16.5186C8.46983 16.5538 8.45083 16.589 8.43183 16.6242Z" fill="#1E1E1E"/>
</svg>
