<svg width="24" height="24" viewBox="0 0 24 24" fill="none" xmlns="http://www.w3.org/2000/svg">
<path fill-rule="evenodd" clip-rule="evenodd" d="M7 3.5C6.60218 3.5 6.22064 3.65804 5.93934 3.93934C5.65804 4.22064 5.5 4.60218 5.5 5V19C5.5 19.3978 5.65804 19.7794 5.93934 20.0607C6.22064 20.342 6.60218 20.5 7 20.5H17C17.3978 20.5 17.7794 20.342 18.0607 20.0607C18.342 19.7794 18.5 19.3978 18.5 19V9.41411V9.41411C18.4999 9.28155 18.4473 9.15433 18.3535 9.06061L12.9394 3.64655C12.8457 3.5528 12.7186 3.50006 12.586 3.5V3.5H7ZM5.23223 3.23223C5.70107 2.76339 6.33696 2.5 7 2.5H12.586C12.9838 2.50008 13.3653 2.65816 13.6466 2.93945M13.6466 2.93945L19.0605 8.35339V8.35339C19.3418 8.63463 19.4999 9.01613 19.5 9.41389V19C19.5 19.663 19.2366 20.2989 18.7678 20.7678C18.2989 21.2366 17.663 21.5 17 21.5H7C6.33696 21.5 5.70107 21.2366 5.23223 20.7678C4.76339 20.2989 4.5 19.663 4.5 19V5C4.5 4.33696 4.76339 3.70107 5.23223 3.23223" fill="#1E1E1E"/>
<path fill-rule="evenodd" clip-rule="evenodd" d="M8.9395 12.9392V12.9392L5.5 16.3787V17.1716C5.5 17.4477 5.27614 17.6716 5 17.6716C4.72386 17.6716 4.5 17.4477 4.5 17.1716V16.1716C4.5 16.039 4.55268 15.9118 4.64645 15.818L8.23245 12.232C8.70127 11.7633 9.33709 11.5 10 11.5C10.6629 11.5 11.2987 11.7633 11.7675 12.232L14 14.4645L15.2324 13.232C15.7013 12.7633 16.3371 12.5 17 12.5C17.6629 12.5 18.2987 12.7633 18.7675 13.232L19.3536 13.818C19.4473 13.9118 19.5 14.039 19.5 14.1716V15.1716C19.5 15.4477 19.2761 15.6716 19 15.6716C18.7239 15.6716 18.5 15.4477 18.5 15.1716V14.3787L18.0605 13.9392V13.9392C17.7792 13.658 17.3977 13.5 17 13.5C16.6023 13.5 16.2208 13.658 15.9396 13.9391V13.9391L14.7071 15.1716L16.3536 16.818C16.5488 17.0133 16.5488 17.3299 16.3536 17.5251C16.1583 17.7204 15.8417 17.7204 15.6464 17.5251L11.0605 12.9392V12.9392C10.7792 12.658 10.3977 12.5 10 12.5C9.60228 12.5 9.22079 12.658 8.9395 12.9392Z" fill="#1E1E1E"/>
<path fill-rule="evenodd" clip-rule="evenodd" d="M13.5 10C13.5 9.72386 13.7239 9.5 14 9.5H14.01C14.2861 9.5 14.51 9.72386 14.51 10C14.51 10.2761 14.2861 10.5 14.01 10.5H14C13.7239 10.5 13.5 10.2761 13.5 10Z" fill="#1E1E1E"/>
</svg>
