<svg width="24" height="24" viewBox="0 0 24 24" fill="none" xmlns="http://www.w3.org/2000/svg">
<path fill-rule="evenodd" clip-rule="evenodd" d="M7 3.5C6.60218 3.5 6.22064 3.65804 5.93934 3.93934C5.65804 4.22064 5.5 4.60218 5.5 5V19C5.5 19.3978 5.65804 19.7794 5.93934 20.0607C6.22064 20.342 6.60218 20.5 7 20.5H17C17.3978 20.5 17.7794 20.342 18.0607 20.0607C18.342 19.7794 18.5 19.3978 18.5 19V9.41411V9.41411C18.4999 9.28155 18.4473 9.15433 18.3535 9.06061L12.9394 3.64655C12.8457 3.5528 12.7186 3.50006 12.586 3.5V3.5H7ZM5.23223 3.23223C5.70107 2.76339 6.33696 2.5 7 2.5H12.586C12.9838 2.50008 13.3653 2.65816 13.6466 2.93945M13.6466 2.93945L19.0605 8.35339V8.35339C19.3418 8.63463 19.4999 9.01613 19.5 9.41389V19C19.5 19.663 19.2366 20.2989 18.7678 20.7678C18.2989 21.2366 17.663 21.5 17 21.5H7C6.33696 21.5 5.70107 21.2366 5.23223 20.7678C4.76339 20.2989 4.5 19.663 4.5 19V5C4.5 4.33696 4.76339 3.70107 5.23223 3.23223" fill="#1E1E1E"/>
<path fill-rule="evenodd" clip-rule="evenodd" d="M6.5 10C6.5 9.72386 6.72386 9.5 7 9.5H17C17.2761 9.5 17.5 9.72386 17.5 10C17.5 10.2583 17.3041 10.4709 17.0528 10.4972V15.6471C17.0528 15.8965 16.9589 16.1405 16.7843 16.3242C16.6088 16.5089 16.3653 16.6176 16.1056 16.6176H13.1649L14.1513 17.6556C14.3415 17.8557 14.3334 18.1722 14.1333 18.3624C13.9331 18.5527 13.6166 18.5446 13.4264 18.3444L12 16.8435L10.5736 18.3444C10.3834 18.5446 10.0669 18.5527 9.86675 18.3624C9.66657 18.1722 9.65851 17.8557 9.84874 17.6556L10.8351 16.6176H7.89441C7.63474 16.6176 7.39119 16.5089 7.21574 16.3242C7.04113 16.1405 6.94721 15.8965 6.94721 15.6471V10.4972C6.69588 10.4709 6.5 10.2583 6.5 10ZM7.94721 10.5V15.6176H16.0528V10.5H7.94721ZM14.8536 11.6464C15.0488 11.8417 15.0488 12.1583 14.8536 12.3536L12.8536 14.3536C12.6583 14.5488 12.3417 14.5488 12.1464 14.3536L10.9859 13.193L9.83884 14.25C9.63578 14.4372 9.31946 14.4243 9.13232 14.2212C8.94519 14.0181 8.9581 13.7018 9.16116 13.5147L10.6612 12.1323C10.8584 11.9506 11.1639 11.9568 11.3536 12.1464L12.5 13.2929L14.1464 11.6464C14.3417 11.4512 14.6583 11.4512 14.8536 11.6464Z" fill="#1E1E1E"/>
</svg>
