<svg width="24" height="24" viewBox="0 0 24 24" fill="none" xmlns="http://www.w3.org/2000/svg">
<path fill-rule="evenodd" clip-rule="evenodd" d="M7 3.5C6.60218 3.5 6.22064 3.65804 5.93934 3.93934C5.65804 4.22064 5.5 4.60218 5.5 5V19C5.5 19.3978 5.65804 19.7794 5.93934 20.0607C6.22064 20.342 6.60218 20.5 7 20.5H17C17.3978 20.5 17.7794 20.342 18.0607 20.0607C18.342 19.7794 18.5 19.3978 18.5 19V9.41411V9.41411C18.4999 9.28155 18.4473 9.15433 18.3535 9.06061L12.9394 3.64655C12.8457 3.5528 12.7186 3.50006 12.586 3.5V3.5H7ZM5.23223 3.23223C5.70107 2.76339 6.33696 2.5 7 2.5H12.586C12.9838 2.50008 13.3653 2.65816 13.6466 2.93945M13.6466 2.93945L19.0605 8.35339V8.35339C19.3418 8.63463 19.4999 9.01613 19.5 9.41389V19C19.5 19.663 19.2366 20.2989 18.7678 20.7678C18.2989 21.2366 17.663 21.5 17 21.5H7C6.33696 21.5 5.70107 21.2366 5.23223 20.7678C4.76339 20.2989 4.5 19.663 4.5 19V5C4.5 4.33696 4.76339 3.70107 5.23223 3.23223" fill="#1E1E1E"/>
<path fill-rule="evenodd" clip-rule="evenodd" d="M9.3952 10.0329C8.72453 10.3681 8.5 10.7389 8.5 11C8.5 11.2611 8.72453 11.6319 9.3952 11.9671C10.036 12.2875 10.9563 12.5 12 12.5C13.0437 12.5 13.964 12.2875 14.6048 11.9671C15.2755 11.6319 15.5 11.2611 15.5 11C15.5 10.7389 15.2755 10.3681 14.6048 10.0329C13.964 9.71251 13.0437 9.5 12 9.5C10.9563 9.5 10.036 9.71251 9.3952 10.0329ZM15.5 12.6005C15.3579 12.697 15.207 12.7841 15.052 12.8616C14.245 13.265 13.1653 13.5 12 13.5C10.8347 13.5 9.75499 13.265 8.94805 12.8616C8.79298 12.7841 8.64213 12.697 8.5 12.6005V13.5C8.5 13.7611 8.72453 14.1319 9.3952 14.4671C10.036 14.7875 10.9563 15 12 15C13.0437 15 13.964 14.7875 14.6048 14.4671C15.2755 14.1319 15.5 13.7611 15.5 13.5V12.6005ZM16.5 11C16.5 10.1561 15.829 9.52687 15.052 9.1384C14.245 8.73499 13.1653 8.5 12 8.5C10.8347 8.5 9.75499 8.73499 8.94805 9.1384C8.17097 9.52687 7.5 10.1561 7.5 11V16C7.5 16.8439 8.17097 17.4731 8.94805 17.8616C9.75499 18.265 10.8347 18.5 12 18.5C13.1653 18.5 14.245 18.265 15.052 17.8616C15.829 17.4731 16.5 16.8439 16.5 16V11ZM15.5 15.1005C15.3579 15.197 15.207 15.2841 15.052 15.3616C14.245 15.765 13.1653 16 12 16C10.8347 16 9.75499 15.765 8.94805 15.3616C8.79298 15.2841 8.64213 15.197 8.5 15.1005V16C8.5 16.2611 8.72453 16.6319 9.3952 16.9671C10.036 17.2875 10.9563 17.5 12 17.5C13.0437 17.5 13.964 17.2875 14.6048 16.9671C15.2755 16.6319 15.5 16.2611 15.5 16V15.1005Z" fill="#1E1E1E"/>
</svg>
