<svg width="24" height="24" viewBox="0 0 24 24" fill="none" xmlns="http://www.w3.org/2000/svg">
<path fill-rule="evenodd" clip-rule="evenodd" d="M7 3.5C6.60218 3.5 6.22064 3.65804 5.93934 3.93934C5.65804 4.22064 5.5 4.60218 5.5 5V19C5.5 19.3978 5.65804 19.7794 5.93934 20.0607C6.22064 20.342 6.60218 20.5 7 20.5H17C17.3978 20.5 17.7794 20.342 18.0607 20.0607C18.342 19.7794 18.5 19.3978 18.5 19V9.41411V9.41411C18.4999 9.28155 18.4473 9.15433 18.3535 9.06061L12.9394 3.64655C12.8457 3.5528 12.7186 3.50006 12.586 3.5V3.5H7ZM5.23223 3.23223C5.70107 2.76339 6.33696 2.5 7 2.5H12.586C12.9838 2.50008 13.3653 2.65816 13.6466 2.93945M13.6466 2.93945L19.0605 8.35339V8.35339C19.3418 8.63463 19.4999 9.01613 19.5 9.41389V19C19.5 19.663 19.2366 20.2989 18.7678 20.7678C18.2989 21.2366 17.663 21.5 17 21.5H7C6.33696 21.5 5.70107 21.2366 5.23223 20.7678C4.76339 20.2989 4.5 19.663 4.5 19V5C4.5 4.33696 4.76339 3.70107 5.23223 3.23223" fill="#1E1E1E"/>
<path fill-rule="evenodd" clip-rule="evenodd" d="M8 10.5C8 10.2239 8.22386 10 8.5 10H15.5C15.7761 10 16 10.2239 16 10.5C16 10.7761 15.7761 11 15.5 11H8.5C8.22386 11 8 10.7761 8 10.5ZM8 13.5C8 13.2239 8.22386 13 8.5 13H13.5C13.7761 13 14 13.2239 14 13.5C14 13.7761 13.7761 14 13.5 14H8.5C8.22386 14 8 13.7761 8 13.5ZM8 16.5C8 16.2239 8.22386 16 8.5 16H11.5C11.7761 16 12 16.2239 12 16.5C12 16.7761 11.7761 17 11.5 17H8.5C8.22386 17 8 16.7761 8 16.5Z" fill="#1E1E1E"/>
</svg>
