<svg width="24" height="24" viewBox="0 0 24 24" fill="none" xmlns="http://www.w3.org/2000/svg">
<path fill-rule="evenodd" clip-rule="evenodd" d="M7 3.5C6.60218 3.5 6.22064 3.65804 5.93934 3.93934C5.65804 4.22064 5.5 4.60218 5.5 5V19C5.5 19.3978 5.65804 19.7794 5.93934 20.0607C6.22064 20.342 6.60218 20.5 7 20.5H17C17.3978 20.5 17.7794 20.342 18.0607 20.0607C18.342 19.7794 18.5 19.3978 18.5 19V9.41411V9.41411C18.4999 9.28155 18.4473 9.15433 18.3535 9.06061L12.9394 3.64655C12.8457 3.5528 12.7186 3.50006 12.586 3.5V3.5H7ZM5.23223 3.23223C5.70107 2.76339 6.33696 2.5 7 2.5H12.586C12.9838 2.50008 13.3653 2.65816 13.6466 2.93945M13.6466 2.93945L19.0605 8.35339V8.35339C19.3418 8.63463 19.4999 9.01613 19.5 9.41389V19C19.5 19.663 19.2366 20.2989 18.7678 20.7678C18.2989 21.2366 17.663 21.5 17 21.5H7C6.33696 21.5 5.70107 21.2366 5.23223 20.7678C4.76339 20.2989 4.5 19.663 4.5 19V5C4.5 4.33696 4.76339 3.70107 5.23223 3.23223" fill="#1E1E1E"/>
<path fill-rule="evenodd" clip-rule="evenodd" d="M9.5 3C9.77614 3 10 3.22386 10 3.5V13.5C10 13.7761 9.77614 14 9.5 14C9.22386 14 9 13.7761 9 13.5V3.5C9 3.22386 9.22386 3 9.5 3Z" fill="#1E1E1E"/>
<path fill-rule="evenodd" clip-rule="evenodd" d="M7 5.5C7 5.22386 7.22386 5 7.5 5H9.5C9.77614 5 10 5.22386 10 5.5C10 5.77614 9.77614 6 9.5 6H7.5C7.22386 6 7 5.77614 7 5.5Z" fill="#1E1E1E"/>
<path fill-rule="evenodd" clip-rule="evenodd" d="M9 7.5C9 7.22386 9.22386 7 9.5 7H11.5C11.7761 7 12 7.22386 12 7.5C12 7.77614 11.7761 8 11.5 8H9.5C9.22386 8 9 7.77614 9 7.5Z" fill="#1E1E1E"/>
<path fill-rule="evenodd" clip-rule="evenodd" d="M7 9.5C7 9.22386 7.22386 9 7.5 9H9.5C9.77614 9 10 9.22386 10 9.5C10 9.77614 9.77614 10 9.5 10H7.5C7.22386 10 7 9.77614 7 9.5Z" fill="#1E1E1E"/>
<path fill-rule="evenodd" clip-rule="evenodd" d="M9 11.5C9 11.2239 9.22386 11 9.5 11H11.5C11.7761 11 12 11.2239 12 11.5C12 11.7761 11.7761 12 11.5 12H9.5C9.22386 12 9 11.7761 9 11.5Z" fill="#1E1E1E"/>
<path fill-rule="evenodd" clip-rule="evenodd" d="M9.9 13.2L9.5 13.5L9.1 13.2C9.19442 13.0741 9.34262 13 9.49999 13C9.65737 13 9.80557 13.0741 9.9 13.2ZM9.50001 14.3858C9.41733 14.5161 9.33091 14.6589 9.2496 14.8053C9.09991 15.0748 8.9822 15.3302 8.92772 15.53C8.90785 15.6028 8.90041 15.6542 8.8985 15.6869C9.03763 15.7998 9.25269 15.875 9.5 15.875C9.74731 15.875 9.96239 15.7998 10.1015 15.6868C10.0996 15.6542 10.0922 15.6028 10.0723 15.53C10.0178 15.3302 9.90012 15.0748 9.75043 14.8053C9.66911 14.6589 9.58269 14.5161 9.50001 14.3858ZM11.0995 15.7823C11.0873 15.9654 11.0265 16.1806 10.8536 16.3536C10.4886 16.7186 9.97423 16.875 9.49999 16.875C9.02575 16.875 8.51144 16.7185 8.14646 16.3536C7.97353 16.1806 7.91275 15.9654 7.90054 15.7823C7.88862 15.6034 7.91993 15.4246 7.96295 15.2669C8.04909 14.951 8.21262 14.6128 8.37543 14.3197C8.54148 14.0208 8.72224 13.7417 8.85998 13.5392C8.92921 13.4373 8.98841 13.3536 9.03062 13.295C9.05174 13.2656 9.06865 13.2424 9.08049 13.2263L9.09436 13.2076L9.09825 13.2023L9.1 13.2C9.1 13.2 9.1 13.2 9.5 13.5C9.9 13.2 9.9 13.2 9.9 13.2L9.90175 13.2023L9.90563 13.2076L9.9195 13.2263C9.93134 13.2424 9.94826 13.2656 9.96938 13.2949C10.0116 13.3536 10.0708 13.4373 10.14 13.5392C10.2778 13.7417 10.4585 14.0208 10.6246 14.3197C10.7874 14.6127 10.9509 14.951 11.0371 15.2669C11.0801 15.4246 11.1114 15.6034 11.0995 15.7823Z" fill="#1E1E1E"/>
</svg>
